<?xml version="1.0" encoding="UTF-8" standalone="no"?>
<!-- Created with Inkscape (http://www.inkscape.org/) -->

<svg
   xmlns:dc="http://purl.org/dc/elements/1.1/"
   xmlns:cc="http://creativecommons.org/ns#"
   xmlns:rdf="http://www.w3.org/1999/02/22-rdf-syntax-ns#"
   xmlns:svg="http://www.w3.org/2000/svg"
   xmlns="http://www.w3.org/2000/svg"
   xmlns:sodipodi="http://sodipodi.sourceforge.net/DTD/sodipodi-0.dtd"
   xmlns:inkscape="http://www.inkscape.org/namespaces/inkscape"
   width="4096mm"
   height="4096mm"
   viewBox="0 0 4096 4096"
   version="1.1"
   id="svg1035"
   inkscape:export-filename="G:\Users\suitedoalex\sites\mary-kay-0.png"
   inkscape:export-xdpi="25.4"
   inkscape:export-ydpi="25.4"
   inkscape:version="0.92.2 (5c3e80d, 2017-08-06)"
   sodipodi:docname="mary-kay-logo.svg">
  <defs
     id="defs1029" />
  <sodipodi:namedview
     id="base"
     pagecolor="#ffffff"
     bordercolor="#666666"
     borderopacity="1.0"
     inkscape:pageopacity="0.0"
     inkscape:pageshadow="2"
     inkscape:zoom="0.02"
     inkscape:cx="4292.3499"
     inkscape:cy="11052.558"
     inkscape:document-units="mm"
     inkscape:current-layer="layer1"
     showgrid="false"
     inkscape:window-width="1600"
     inkscape:window-height="837"
     inkscape:window-x="-8"
     inkscape:window-y="-8"
     inkscape:window-maximized="1" />
  <metadata
     id="metadata1032">
    <rdf:RDF>
      <cc:Work
         rdf:about="">
        <dc:format>image/svg+xml</dc:format>
        <dc:type
           rdf:resource="http://purl.org/dc/dcmitype/StillImage" />
        <dc:title></dc:title>
      </cc:Work>
    </rdf:RDF>
  </metadata>
  <g
     inkscape:label="Layer 1"
     inkscape:groupmode="layer"
     id="layer1"
     transform="translate(0,3799)">
    <g
       id="g34"
       transform="matrix(7.5835577,0,0,-7.5835577,454.38209,-1611.4332)"
       inkscape:export-xdpi="3.0108247"
       inkscape:export-ydpi="3.0108247">
      <path
         d="M 0,0 C -1.012,0.438 -2.447,1.059 -2.877,2.417 -3.31,3.781 -2.951,6.731 -2.734,7.865 L 3.312,43.876 23.817,0.149 C 24.16,-0.645 24.446,-0.853 24.824,0 L 44.038,44.175 50.227,5.068 C 50.442,3.781 50.868,1.686 48.824,0 48.069,-0.624 48.572,-1.285 49.4,-1.058 c 0.32,0.086 3.2,0.49 4.894,0.529 1.688,0.037 4.71,-0.116 6.224,-0.457 1.15,-0.257 1.365,0.758 0.716,0.986 -1.23,0.431 -3.884,0.831 -4.458,4.349 l -7.234,45.084 c -0.43,3.18 1.366,4.727 4.121,5.018 0.792,0.083 0.846,1.335 -0.379,1.185 -1.714,-0.209 -4.64,-0.265 -5.719,-0.265 -1.079,0 -3.527,0.227 -4.316,0.306 -0.793,0.075 -1.081,-0.454 -0.721,-1.363 0.362,-0.907 0.18,-2.38 -0.323,-3.668 L 25.471,11.497 7.394,50.34 c -0.557,1.176 -0.919,3.257 -0.557,4.124 0.272,0.661 0,1.288 -0.791,1.134 -0.795,-0.15 -3.31,-0.227 -4.608,-0.227 -1.295,0 -5.396,0.16 -6.186,0.227 -0.897,0.079 -1.035,-1.029 -0.315,-1.189 1.769,-0.395 3.123,-0.891 4.019,-1.872 0.583,-0.633 1.403,-1.844 1.117,-3.519 L -7.555,5.448 c -0.486,-2.384 -1.107,-4.474 -4.386,-5.455 -0.671,-0.202 -0.462,-1.343 0.286,-1.176 1.838,0.42 3.666,0.578 5.901,0.578 2.372,0 4.655,-0.402 5.457,-0.578 C 0.35,-1.327 0.745,-0.32 0,0"
         style="fill:#000000;fill-opacity:1;fill-rule:nonzero;stroke:none"
         id="path36"
         inkscape:connector-curvature="0" />
    </g>
    <g
       id="g38"
       transform="matrix(7.5835577,0,0,-7.5835577,1041.7408,-1648.1616)"
       inkscape:export-xdpi="3.0108247"
       inkscape:export-ydpi="3.0108247">
      <path
         d="m 0,0 c -0.359,-0.836 -1.019,-3.067 0.218,-5.031 0.333,-0.534 -0.136,-1.078 -0.687,-0.909 -0.46,0.143 -1.618,0.415 -3.849,0.415 -1.943,0 -3.127,-0.278 -4.855,-0.529 -0.784,-0.112 -1.026,0.946 -0.261,1.171 2.804,0.835 4.344,3.236 5.081,4.806 l 21.333,51.02 c 0.363,0.873 0.823,0.884 1.187,-0.034 L 38.245,1.134 c 1.295,-3.027 3.04,-5.092 5.344,-5.9 0.826,-0.293 0.494,-1.307 -0.21,-1.195 -0.723,0.118 -2.903,0.589 -5.928,0.589 -3.021,0 -4.144,-0.355 -5.403,-0.682 -0.479,-0.123 -1,0.322 -0.532,1.002 1.73,2.498 0.181,5.664 -0.106,6.411 L 28.46,8.847 H 3.562 Z M 27.019,12.177 16.013,40.167 4.929,12.214 Z"
         style="fill:#000000;fill-opacity:1;fill-rule:nonzero;stroke:none"
         id="path40"
         inkscape:connector-curvature="0" />
    </g>
    <g
       id="g42"
       transform="matrix(7.5835577,0,0,-7.5835577,1709.2683,-1658.9936)"
       inkscape:export-xdpi="3.0108247"
       inkscape:export-ydpi="3.0108247">
      <path
         d="m 0,0 c 0.862,-1.21 4.102,-5.979 9.858,-5.979 0.881,0 0.755,-1.16 0,-1.204 -6.37,-0.341 -10.147,0.225 -15.652,6.313 -3.821,4.229 -13.779,17.891 -15.935,20.842 -0.285,0.382 -0.452,0.793 0.14,0.793 0.686,0 7.195,-0.87 11.085,5.107 3.883,5.975 1.798,13.013 1.295,14.298 -0.505,1.287 -2.67,6.812 -9.859,7.26 -2.411,0.153 -4.461,-0.752 -4.966,-1.135 -0.503,-0.375 -1.081,-0.753 -1.151,-2.041 V -1.908 c 0,-2.896 1.834,-3.835 3.309,-4.35 0.756,-0.264 0.406,-1.294 -0.305,-1.173 -0.714,0.123 -3.364,0.55 -6.027,0.55 -2.662,0 -4.974,-0.237 -5.991,-0.425 -0.664,-0.125 -0.961,0.849 -0.278,1.152 1.925,0.852 3.175,2.174 3.175,4.266 v 46.295 c 0,1.156 -1.081,3.176 -3.219,3.858 -0.698,0.22 -0.578,1.266 0.27,1.159 0.66,-0.081 2.23,-0.403 4.964,-0.403 1.654,0 8.347,0.83 10.721,0.83 3.383,0 8.96,-0.793 12.523,-4.539 3.307,-3.477 4.002,-7.791 4.026,-9.679 0.038,-2.763 -0.547,-7.597 -4.243,-11.577 -2.987,-3.215 -6.336,-4.171 -7.053,-4.405 -0.289,-0.097 -0.45,-0.246 -0.215,-0.51 z"
         style="fill:#000000;fill-opacity:1;fill-rule:nonzero;stroke:none"
         id="path44"
         inkscape:connector-curvature="0" />
    </g>
    <g
       id="g46"
       transform="matrix(7.5835577,0,0,-7.5835577,1978.7484,-1626.0524)"
       inkscape:export-xdpi="3.0108247"
       inkscape:export-ydpi="3.0108247">
      <path
         d="m 0,0 -19.141,45.62 c -0.576,1.433 -2.226,5.2 -6.152,7.07 -0.675,0.32 -0.318,1.217 0.324,1.134 2.238,-0.292 4.46,-0.417 5.969,-0.417 1.512,0 5.769,0.431 6.846,0.517 0.512,0.042 0.766,-0.712 0.375,-1.065 -0.578,-0.524 -2.614,-2.173 -1.39,-5.124 L 3.813,7.494 24.071,47.431 c 0.79,1.552 0.725,4.521 -0.984,5.644 -0.502,0.332 -0.322,1.215 0.37,1.127 0.863,-0.107 4.102,-0.434 5.684,-0.434 1.584,0 4.551,0.19 5.307,0.302 0.511,0.076 0.91,-0.814 0.251,-1.144 -1.6,-0.807 -3.615,-1.559 -6.853,-7.687 L -2.448,-14.523 c -1.655,-3.177 -5.935,-7.527 -12.898,-6.993 -0.638,0.049 -0.866,1.002 -0.071,1.199 1.584,0.394 5.88,1.445 7.932,5.418 z"
         style="fill:#000000;fill-opacity:1;fill-rule:nonzero;stroke:none"
         id="path48"
         inkscape:connector-curvature="0" />
    </g>
    <g
       id="g50"
       transform="matrix(7.5835577,0,0,-7.5835577,2525.6405,-2030.5357)"
       inkscape:export-xdpi="3.0108247"
       inkscape:export-ydpi="3.0108247">
      <path
         d="M 0,0 C 1.73,0 4.696,0.169 5.85,0.32 6.497,0.406 6.848,-0.645 5.949,-0.87 5.128,-1.076 3.312,-1.591 3.312,-4.236 v -46.408 c 0,-1.441 0.307,-3.793 2.915,-4.475 0.787,-0.206 0.52,-1.313 -0.135,-1.18 -1.779,0.359 -3.644,0.547 -5.875,0.547 -2.229,0 -5.214,-0.234 -6.161,-0.395 -0.889,-0.152 -0.988,1.028 -0.224,1.176 1.617,0.325 3.302,1.601 3.302,4.364 0,2.649 -0.011,45.084 -0.011,46.599 0,2.034 -2.087,2.957 -2.771,3.159 C -6.231,-0.68 -6.205,0.399 -5.447,0.32 -4.296,0.209 -1.87,0 0,0"
         style="fill:#000000;fill-opacity:1;fill-rule:nonzero;stroke:none"
         id="path52"
         inkscape:connector-curvature="0" />
    </g>
    <g
       id="g54"
       transform="matrix(7.5835577,0,0,-7.5835577,2876.2678,-1644.4317)"
       inkscape:export-xdpi="3.0108247"
       inkscape:export-ydpi="3.0108247">
      <path
         d="m 0,0 21.422,51.194 c 0.359,0.874 0.82,0.882 1.186,-0.035 L 42.686,1.385 c 1.296,-3.027 3.041,-5.089 5.345,-5.903 0.826,-0.29 0.496,-1.302 -0.208,-1.19 -0.725,0.118 -2.906,0.586 -5.928,0.586 -3.021,0 -4.146,-0.355 -5.406,-0.681 -0.477,-0.126 -1.002,0.324 -0.531,1.002 1.728,2.498 0.182,5.664 -0.109,6.409 l -2.95,7.491 H 8 L 4.439,0.248 C 4.08,-0.585 3.422,-2.814 4.657,-4.78 4.991,-5.312 4.523,-5.859 3.974,-5.687 c -0.463,0.139 -1.62,0.413 -3.85,0.413 -1.888,0 -3.686,-0.093 -4.98,-0.17 -1.009,-0.056 -4.361,-0.311 -8.638,1.965 -5.825,3.103 -14.212,13.559 -15.542,15.132 l -11.947,14.223 c -0.323,0.337 -0.177,0.529 0.073,0.754 l 18.349,20.352 c 1.368,1.512 1.439,2.646 1.368,3.175 -0.071,0.529 -0.071,1.211 0.866,1.058 0.935,-0.148 2.084,-0.301 4.39,-0.301 2.298,0 3.019,0.162 4.673,0.32 0.784,0.078 0.891,-1.038 0.146,-1.19 -3.057,-0.62 -6.425,-2.573 -8.996,-5.412 L -34.936,28.221 -13.798,2.141 c 2.085,-2.533 4.01,-4.14 5.414,-4.939 2.098,-1.185 3.886,-1.025 5.038,-0.6 C -1.585,-2.758 -0.687,-1.471 0,0 M 31.458,12.428 20.451,40.415 9.37,12.468 Z"
         style="fill:#000000;fill-opacity:1;fill-rule:nonzero;stroke:none"
         id="path56"
         inkscape:connector-curvature="0" />
    </g>
    <g
       id="g58"
       transform="matrix(7.5835577,0,0,-7.5835577,3410.2117,-1626.0524)"
       inkscape:export-xdpi="3.0108247"
       inkscape:export-ydpi="3.0108247">
      <path
         d="m 0,0 -19.138,45.62 c -0.58,1.433 -2.223,5.2 -6.158,7.07 -0.672,0.32 -0.313,1.217 0.327,1.134 2.242,-0.292 4.462,-0.417 5.975,-0.417 1.511,0 5.765,0.431 6.844,0.517 0.513,0.042 0.763,-0.712 0.378,-1.065 -0.581,-0.524 -2.618,-2.173 -1.396,-5.124 L 3.813,7.494 24.072,47.431 c 0.79,1.552 0.73,4.521 -0.981,5.644 -0.506,0.332 -0.327,1.215 0.367,1.127 0.86,-0.107 4.102,-0.434 5.689,-0.434 1.579,0 4.547,0.19 5.304,0.302 0.511,0.076 0.908,-0.814 0.249,-1.144 -1.598,-0.807 -3.611,-1.559 -6.853,-7.687 L -2.444,-14.523 c -1.655,-3.177 -5.937,-7.527 -12.9,-6.993 -0.638,0.049 -0.866,1.002 -0.071,1.199 1.587,0.394 5.883,1.445 7.933,5.418 z"
         style="fill:#000000;fill-opacity:1;fill-rule:nonzero;stroke:none"
         id="path60"
         inkscape:connector-curvature="0" />
    </g>
    <g
       id="g62"
       transform="matrix(7.5835577,0,0,-7.5835577,3712.8586,-2037.1443)"
       inkscape:export-xdpi="3.0108247"
       inkscape:export-ydpi="3.0108247">
      <path
         d="m 0,0 c 1.606,0 2.952,-1.332 2.952,-3.078 0,-1.779 -1.346,-3.111 -2.952,-3.111 -1.613,0 -2.967,1.332 -2.967,3.111 C -2.967,-1.332 -1.613,0 0,0 m 0,-5.734 c 1.362,0 2.416,1.142 2.416,2.656 0,1.481 -1.054,2.623 -2.416,2.623 -1.377,0 -2.432,-1.142 -2.432,-2.623 0,-1.514 1.055,-2.656 2.432,-2.656 m -1.149,4.451 h 1.331 c 0.818,0 1.204,-0.339 1.204,-1.034 0,-0.653 -0.394,-0.926 -0.906,-0.984 L 1.464,-4.898 H 0.89 l -0.937,1.556 h -0.566 v -1.556 h -0.536 z m 0.536,-1.605 h 0.558 c 0.472,0 0.905,0.025 0.905,0.596 0,0.48 -0.393,0.555 -0.755,0.555 h -0.708 z"
         style="fill:#000000;fill-opacity:1;fill-rule:nonzero;stroke:none"
         id="path64"
         inkscape:connector-curvature="0" />
    </g>
  </g>
</svg>
